<?xml version="1.0" encoding="utf-8"?>
<svg viewBox="0 0 512 512" xmlns="http://www.w3.org/2000/svg">
  <defs>
    <clipPath id="clip1">
      <path d="M 0 0 L 256 0 L 256 512 L 0 512 Z M 22 464 L 234 464 L 234 52 L 22 52 Z"/>
    </clipPath>
    <clipPath id="path-1">
      <path d="M 0 0 L 256 0 L 256 512 L 0 512 Z M 22 464 L 234 464 L 234 52 L 22 52 Z"/>
    </clipPath>
  </defs>
  <g>
    <title>left</title>
    <ellipse transform="matrix(-0.707107, 0.707107, -0.707107, -0.707107, 831.891246, -183.674486)" cx="707.64" cy="225.805" rx="34.522" ry="34.522" style="fill: rgb(216, 216, 216);"/>
    <polygon points="9.493 345.2 82.983 265.191 152.917 358.831 196.181 316.16 244.78 370.092 240.631 485.068 20.161 488.624" style="fill: rgb(216, 216, 216);"/>
    <g>
      <title>body</title>
      <rect width="256" style="fill: rgb(63, 81, 181);" height="512" rx="24" ry="24" clip-path="url(#clip1)">
        <title>body</title>
      </rect>
      <rect x="88" y="22" width="80" height="8" rx="4" ry="4" style="fill: rgb(216, 216, 216);">
        <title>earSpeaker</title>
      </rect>
    </g>
  </g>
  <g transform="matrix(1, 0, 0, 1, 256, 0)">
    <title>right</title>
    <ellipse cx="76" cy="132" rx="36" ry="36" style="fill: rgb(216, 216, 216);"/>
    <path style="fill: rgb(216, 216, 216);" d="M 155.879 466.589 C 155.879 466.589 135.772 343.075 153.007 274.136 C 170.242 205.197 178.859 218.124 223.381 212.379 C 267.903 206.634 283.702 255.466 282.266 298.552 C 280.83 341.638 288.011 460.845 288.011 460.845 L 155.879 466.589 Z"/>
    <ellipse cx="176" cy="192" rx="36" ry="36" style="fill: rgb(216, 216, 216);"/>
    <path style="fill: rgb(216, 216, 216);" d="M -1.009 475.199 C -1.009 475.199 -21.116 351.685 -3.881 282.746 C 13.354 213.807 21.971 226.734 66.493 220.989 C 111.015 215.244 126.814 264.076 125.378 307.162 C 123.942 350.248 131.123 469.455 131.123 469.455 L -1.009 475.199 Z"/>
    <g>
      <title>body</title>
      <rect width="256" style="fill: rgb(63, 81, 181);" height="512" rx="24" ry="24" clip-path="url(#path-1)">
        <title>body</title>
      </rect>
      <rect x="88" y="22" width="80" height="8" style="fill: rgb(216, 216, 216);" rx="4" ry="4">
        <title>earSpeaker</title>
      </rect>
    </g>
  </g>
  <g transform="matrix(1, 0, 0, 1, 168, 260)" style="pointer-events: none; visibility: hidden;">
    <title>arrow</title>
    <ellipse rx="16" ry="16" style="fill: rgb(255, 64, 129);"/>
    <ellipse cx="48" rx="16" ry="16" style="fill: rgb(255, 64, 129);"/>
    <ellipse cx="96" rx="16" ry="16" style="fill: rgb(255, 64, 129);"/>
    <polyline style="fill: none; stroke: rgb(255, 64, 129); stroke-linecap: round; stroke-width: 24; stroke-linejoin: round;" points="116 -52 168 0 116 52"/>
  </g>
</svg>