<?xml version="1.0" encoding="utf-8"?>
<svg viewBox="0 0 512 512" xmlns="http://www.w3.org/2000/svg">
  <defs>
    <clipPath id="clip1">
      <path d="M 22 464 L 234 464 L 234 52 L 22 52 Z"/>
    </clipPath>
  </defs>
  <g>
    <title>left</title>
    <g>
      <title>body</title>
      <rect width="256" style="fill: rgb(63, 81, 181);" height="512" rx="24" ry="24">
        <title>body</title>
      </rect>
      <rect x="88" y="22" width="80" height="8" rx="4" ry="4" style="fill: rgb(216, 216, 216);">
        <title>earSpeaker</title>
      </rect>
    </g>
    <g clip-path="url(#clip1)">
      <title>scene</title>
      <rect x="3.036" y="0.298" width="251.338" height="511.293" style="fill: rgb(255, 255, 255);"/>
      <ellipse transform="matrix(-0.707107, 0.707107, -0.707107, -0.707107, 831.891552, -183.674501)" cx="707.64" cy="225.805" rx="34.522" ry="34.522" style="fill: rgb(216, 216, 216);"/>
      <polygon points="13.323 302.114 80.111 233.594 145.736 353.086 199.053 307.543 244.78 370.092 240.631 485.068 12.501 483.837" style="fill: rgb(216, 216, 216);"/>
    </g>
  </g>
  <g transform="matrix(1, 0, 0, 1, 256, 0)">
    <title>right</title>
    <g>
      <title>body</title>
      <rect width="256" style="fill: rgb(63, 81, 181);" height="512" rx="24" ry="24">
        <title>body</title>
      </rect>
      <rect x="88" y="22" width="80" height="8" style="fill: rgb(216, 216, 216);" rx="4" ry="4">
        <title>earSpeaker</title>
      </rect>
    </g>
    <g clip-path="url(#clip1)">
      <title>scene</title>
      <rect x="-0.19" y="6.522" width="284.371" height="529.964" style="fill: rgb(255, 255, 255);"/>
      <ellipse cx="76" cy="132" rx="36" ry="36" style="fill: rgb(216, 216, 216);"/>
      <path style="fill: rgb(216, 216, 216);" d="M 16.226 488.604 C 16.226 488.604 6.651 355.515 15.269 282.746 C 23.887 209.977 43.037 175.509 78.941 179.817 C 114.845 184.125 137.346 251.15 135.91 294.236 C 134.474 337.322 134.953 488.605 134.953 488.605 L 16.226 488.604 Z"/>
      <ellipse cx="176" cy="192" rx="36" ry="36" style="fill: rgb(216, 216, 216);"/>
      <path style="fill: rgb(216, 216, 216);" d="M 125.24 478.079 C 125.24 478.079 121.133 322.459 119.974 345.947 C 118.815 369.435 135.773 248.763 180.295 243.018 C 224.817 237.273 242.531 310.042 242.052 346.426 C 241.573 382.81 239.18 480.952 239.18 480.952 L 125.24 478.079 Z"/>
    </g>
  </g>
  <g transform="matrix(1, 0, 0, 1, 168, 260)" style="pointer-events: none;">
    <title>arrow</title>
    <ellipse rx="16" ry="16" style="fill: rgb(255, 64, 129);"/>
    <ellipse cx="48" rx="16" ry="16" style="fill: rgb(255, 64, 129);"/>
    <ellipse cx="96" rx="16" ry="16" style="fill: rgb(255, 64, 129);"/>
    <polyline style="fill: none; stroke: rgb(255, 64, 129); stroke-linecap: round; stroke-width: 24; stroke-linejoin: round;" points="116 -52 168 0 116 52"/>
  </g>
</svg>