<?xml version="1.0" encoding="utf-8"?>
<svg version="1.1" width="785px" height="785px" preserveAspectRatio="none" viewBox="0 0 785 785" xmlns="http://www.w3.org/2000/svg">
  <defs>
    <clipPath id="clippath1" transform="">
      <path d="M 0 785.008 L 785.008 785.008 L 785.008 0 L 0 0 Z" style="fill: none; clip-rule: nonzero;"/>
    </clipPath>
    <clipPath id="clippath2" transform="" style="clip-path: url(#clippath1);">
      <rect x="348.504" y="452.505" width="88" height="88" style="clip-rule: nonzero;"/>
    </clipPath>
    <clipPath id="clippath3" transform="" style="clip-path: url(#clippath1);">
      <rect x="244.502" y="452.505" width="88" height="88" style="clip-rule: nonzero;"/>
    </clipPath>
    <clipPath id="clippath4" transform="" style="clip-path: url(#clippath1);">
      <rect x="245.392" y="348.504" width="88" height="88" style="clip-rule: nonzero;"/>
    </clipPath>
    <clipPath id="clippath5" transform="" style="clip-path: url(#clippath1);">
      <rect x="244.503" y="244.503" width="88" height="88" style="clip-rule: nonzero;"/>
    </clipPath>
    <clipPath id="clippath6" transform="" style="clip-path: url(#clippath1);">
      <rect x="349.393" y="244.503" width="88" height="88" style="clip-rule: nonzero;"/>
    </clipPath>
    <clipPath id="clippath7" transform="" style="clip-path: url(#clippath1);">
      <rect x="452.505" y="244.503" width="88" height="88" style="clip-rule: nonzero;"/>
    </clipPath>
    <clipPath id="clippath8" transform="" style="clip-path: url(#clippath1);">
      <rect x="452.505" y="348.504" width="88" height="88" style="clip-rule: nonzero;"/>
    </clipPath>
    <clipPath id="clippath9" transform="" style="clip-path: url(#clippath1);">
      <rect x="452.505" y="452.505" width="88" height="88" style="clip-rule: nonzero;"/>
    </clipPath>
  </defs>
  <g transform="matrix(1 0 0 -1 0 785.008)">
    <title>icon</title>
    <path d="M 896.65 -107.072 L -99.889 -107.072 L -99.889 879.644 L 896.65 879.644 Z" style="fill: rgb(0, 90, 238); stroke: rgb(35, 24, 21); stroke-opacity: 1; stroke-miterlimit: 0; stroke-width: 1.277; stroke-dashoffset: 0px; fill-opacity: 1;">
      <title>background</title>
    </path>
    <g transform="" style="">
      <path d="M 482.504 302.504 L 302.504 302.504 L 302.504 482.504 L 482.504 482.504 Z" style="fill: rgb(255, 255, 255); fill-opacity: 1;"/>
      <path d="M 0 785.008 L 785.008 785.008 L 785.008 0 L 0 0 Z" style="fill: none;"/>
    </g>
    <g style="clip-path: url(#clippath2);">
      <g transform="">
        <path d="M 436.504 452.505 L 348.504 452.505 L 348.504 540.505 L 436.504 540.505 Z" style="fill: rgb(66, 133, 244); fill-opacity: 1;"/>
      </g>
    </g>
    <g style="clip-path: url(#clippath3);">
      <g transform="">
        <path d="M 332.502 452.505 L 244.502 452.505 L 244.502 540.505 L 332.502 540.505 Z" style="fill: rgb(66, 133, 244); fill-opacity: 1;"/>
      </g>
    </g>
    <g style="clip-path: url(#clippath4);">
      <g transform="">
        <path d="M 333.392 348.504 L 245.392 348.504 L 245.392 436.504 L 333.392 436.504 Z" style="fill: rgb(66, 133, 244); fill-opacity: 1;"/>
      </g>
    </g>
    <g style="clip-path: url(#clippath5);">
      <g transform="">
        <path d="M 332.503 244.503 L 244.503 244.503 L 244.503 332.503 L 332.503 332.503 Z" style="fill: rgb(66, 133, 244); fill-opacity: 1;"/>
      </g>
    </g>
    <g style="clip-path: url(#clippath6);">
      <g transform="">
        <path d="M 437.394 244.503 L 349.394 244.503 L 349.394 332.503 L 437.394 332.503 Z" style="fill: rgb(66, 133, 244); fill-opacity: 1;"/>
      </g>
    </g>
    <g style="clip-path: url(#clippath7);">
      <g transform="">
        <path d="M 540.506 244.503 L 452.506 244.503 L 452.506 332.503 L 540.506 332.503 Z" style="fill: rgb(66, 133, 244); fill-opacity: 1;"/>
      </g>
    </g>
    <g style="clip-path: url(#clippath8);">
      <g transform="">
        <path d="M 540.505 348.504 L 452.505 348.504 L 452.505 436.504 L 540.505 436.504 Z" style="fill: rgb(66, 133, 244); fill-opacity: 1;"/>
      </g>
    </g>
    <g style="clip-path: url(#clippath9);">
      <g transform="">
        <path d="M 540.505 452.505 L 452.505 452.505 L 452.505 540.505 L 540.505 540.505 Z" style="fill: rgb(66, 133, 244); fill-opacity: 1;"/>
      </g>
    </g>
    <g transform="" style="">
      <path d="M 436.504 348.504 L 348.504 348.504 L 348.504 436.504 L 436.504 436.504 Z" style="fill: rgb(66, 133, 244); fill-opacity: 1;"/>
    </g>
  </g>
  <g style="visibility: hidden;">
    <title>line</title>
    <g style="" transform="matrix(1.532094, 0, 0, -1.532094, -0.294687, 784.644836)">
      <title>grid</title>
      <g>
        <path d="M 0.06 512.145 L 512.06 512.145 L 512.06 0.145 L 0.06 0.145 Z" style="fill: none; stroke: rgb(236, 236, 237); stroke-opacity: 1; stroke-miterlimit: 0; stroke-width: 1px; stroke-dashoffset: 0px;"/>
      </g>
      <g transform="matrix(1, 0, 0, 1, 0.0599, 10.8115)">
        <path d="M 0 0 L 512 0" style="fill: none; stroke: rgb(236, 236, 237); stroke-opacity: 1; stroke-miterlimit: 0; stroke-width: 1px; stroke-dashoffset: 0px;"/>
      </g>
      <g transform="matrix(1, 0, 0, 1, 0.0599, 21.478201)">
        <path d="M 0 0 L 512 0" style="fill: none; stroke: rgb(236, 236, 237); stroke-opacity: 1; stroke-miterlimit: 0; stroke-width: 1px; stroke-dashoffset: 0px;"/>
      </g>
      <g transform="matrix(1, 0, 0, 1, 0.0599, 32.144798)">
        <path d="M 0 0 L 512 0" style="fill: none; stroke: rgb(236, 236, 237); stroke-opacity: 1; stroke-miterlimit: 0; stroke-width: 1px; stroke-dashoffset: 0px;"/>
      </g>
      <g transform="matrix(1, 0, 0, 1, 0.0599, 42.811504)">
        <path d="M 0 0 L 512 0" style="fill: none; stroke: rgb(236, 236, 237); stroke-opacity: 1; stroke-miterlimit: 0; stroke-width: 1px; stroke-dashoffset: 0px;"/>
      </g>
      <g transform="matrix(1, 0, 0, 1, 0.0599, 53.478203)">
        <path d="M 0 0 L 512 0" style="fill: none; stroke: rgb(236, 236, 237); stroke-opacity: 1; stroke-miterlimit: 0; stroke-width: 1px; stroke-dashoffset: 0px;"/>
      </g>
      <g transform="matrix(1, 0, 0, 1, 0.0599, 64.144798)">
        <path d="M 0 0 L 512 0" style="fill: none; stroke: rgb(236, 236, 237); stroke-opacity: 1; stroke-miterlimit: 0; stroke-width: 1px; stroke-dashoffset: 0px;"/>
      </g>
      <g transform="matrix(1, 0, 0, 1, 0.0599, 74.811508)">
        <path d="M 0 0 L 512 0" style="fill: none; stroke: rgb(236, 236, 237); stroke-opacity: 1; stroke-miterlimit: 0; stroke-width: 1px; stroke-dashoffset: 0px;"/>
      </g>
      <g transform="matrix(1, 0, 0, 1, 0.0599, 85.478203)">
        <path d="M 0 0 L 512 0" style="fill: none; stroke: rgb(236, 236, 237); stroke-opacity: 1; stroke-miterlimit: 0; stroke-width: 1px; stroke-dashoffset: 0px;"/>
      </g>
      <g transform="matrix(1, 0, 0, 1, 0.0599, 96.144798)">
        <path d="M 0 0 L 512 0" style="fill: none; stroke: rgb(236, 236, 237); stroke-opacity: 1; stroke-miterlimit: 0; stroke-width: 1px; stroke-dashoffset: 0px;"/>
      </g>
      <g transform="matrix(1, 0, 0, 1, 0.0599, 106.811508)">
        <path d="M 0 0 L 512 0" style="fill: none; stroke: rgb(236, 236, 237); stroke-opacity: 1; stroke-miterlimit: 0; stroke-width: 1px; stroke-dashoffset: 0px;"/>
      </g>
      <g transform="matrix(1, 0, 0, 1, 0.0599, 117.478203)">
        <path d="M 0 0 L 512 0" style="fill: none; stroke: rgb(236, 236, 237); stroke-opacity: 1; stroke-miterlimit: 0; stroke-width: 1px; stroke-dashoffset: 0px;"/>
      </g>
      <g transform="matrix(1, 0, 0, 1, 0.0599, 128.144806)">
        <path d="M 0 0 L 512 0" style="fill: none; stroke: rgb(236, 236, 237); stroke-opacity: 1; stroke-miterlimit: 0; stroke-width: 1px; stroke-dashoffset: 0px;"/>
      </g>
      <g transform="matrix(1, 0, 0, 1, 0.0599, 138.811493)">
        <path d="M 0 0 L 512 0" style="fill: none; stroke: rgb(236, 236, 237); stroke-opacity: 1; stroke-miterlimit: 0; stroke-width: 1px; stroke-dashoffset: 0px;"/>
      </g>
      <g transform="matrix(1, 0, 0, 1, 0.0599, 149.478195)">
        <path d="M 0 0 L 512 0" style="fill: none; stroke: rgb(236, 236, 237); stroke-opacity: 1; stroke-miterlimit: 0; stroke-width: 1px; stroke-dashoffset: 0px;"/>
      </g>
      <g transform="matrix(1, 0, 0, 1, 0.0599, 160.144806)">
        <path d="M 0 0 L 512 0" style="fill: none; stroke: rgb(236, 236, 237); stroke-opacity: 1; stroke-miterlimit: 0; stroke-width: 1px; stroke-dashoffset: 0px;"/>
      </g>
      <g transform="matrix(1, 0, 0, 1, 0.0599, 170.811493)">
        <path d="M 0 0 L 512 0" style="fill: none; stroke: rgb(236, 236, 237); stroke-opacity: 1; stroke-miterlimit: 0; stroke-width: 1px; stroke-dashoffset: 0px;"/>
      </g>
      <g transform="matrix(1, 0, 0, 1, 0.0599, 181.478195)">
        <path d="M 0 0 L 512 0" style="fill: none; stroke: rgb(216, 217, 218); stroke-opacity: 1; stroke-miterlimit: 0; stroke-width: 1px; stroke-dashoffset: 0px;"/>
      </g>
      <g transform="matrix(1, 0, 0, 1, 0.0599, 192.144821)">
        <path d="M 0 0 L 512 0" style="fill: none; stroke: rgb(236, 236, 237); stroke-opacity: 1; stroke-miterlimit: 0; stroke-width: 1px; stroke-dashoffset: 0px;"/>
      </g>
      <g transform="matrix(1, 0, 0, 1, 0.0599, 202.811493)">
        <path d="M 0 0 L 512 0" style="fill: none; stroke: rgb(236, 236, 237); stroke-opacity: 1; stroke-miterlimit: 0; stroke-width: 1px; stroke-dashoffset: 0px;"/>
      </g>
      <g transform="matrix(1, 0, 0, 1, 0.0599, 213.478195)">
        <path d="M 0 0 L 512 0" style="fill: none; stroke: rgb(236, 236, 237); stroke-opacity: 1; stroke-miterlimit: 0; stroke-width: 1px; stroke-dashoffset: 0px;"/>
      </g>
      <g transform="matrix(1, 0, 0, 1, 0.0599, 224.144821)">
        <path d="M 0 0 L 512 0" style="fill: none; stroke: rgb(236, 236, 237); stroke-opacity: 1; stroke-miterlimit: 0; stroke-width: 1px; stroke-dashoffset: 0px;"/>
      </g>
      <g transform="matrix(1, 0, 0, 1, 0.0599, 234.811493)">
        <path d="M 0 0 L 512 0" style="fill: none; stroke: rgb(236, 236, 237); stroke-opacity: 1; stroke-miterlimit: 0; stroke-width: 1px; stroke-dashoffset: 0px;"/>
      </g>
      <g transform="matrix(1, 0, 0, 1, 0.0599, 245.478195)">
        <path d="M 0 0 L 512 0" style="fill: none; stroke: rgb(236, 236, 237); stroke-opacity: 1; stroke-miterlimit: 0; stroke-width: 1px; stroke-dashoffset: 0px;"/>
      </g>
      <g transform="matrix(1, 0, 0, 1, 0.0599, 266.811493)">
        <path d="M 0 0 L 512 0" style="fill: none; stroke: rgb(236, 236, 237); stroke-opacity: 1; stroke-miterlimit: 0; stroke-width: 1px; stroke-dashoffset: 0px;"/>
      </g>
      <g transform="matrix(1, 0, 0, 1, 0.0599, 277.47821)">
        <path d="M 0 0 L 512 0" style="fill: none; stroke: rgb(236, 236, 237); stroke-opacity: 1; stroke-miterlimit: 0; stroke-width: 1px; stroke-dashoffset: 0px;"/>
      </g>
      <g transform="matrix(1, 0, 0, 1, 0.0599, 288.144836)">
        <path d="M 0 0 L 512 0" style="fill: none; stroke: rgb(236, 236, 237); stroke-opacity: 1; stroke-miterlimit: 0; stroke-width: 1px; stroke-dashoffset: 0px;"/>
      </g>
      <g transform="matrix(1, 0, 0, 1, 0.0599, 298.811493)">
        <path d="M 0 0 L 512 0" style="fill: none; stroke: rgb(236, 236, 237); stroke-opacity: 1; stroke-miterlimit: 0; stroke-width: 1px; stroke-dashoffset: 0px;"/>
      </g>
      <g transform="matrix(1, 0, 0, 1, 0.0599, 309.47821)">
        <path d="M 0 0 L 512 0" style="fill: none; stroke: rgb(236, 236, 237); stroke-opacity: 1; stroke-miterlimit: 0; stroke-width: 1px; stroke-dashoffset: 0px;"/>
      </g>
      <g transform="matrix(1, 0, 0, 1, 0.0599, 320.144836)">
        <path d="M 0 0 L 512 0" style="fill: none; stroke: rgb(236, 236, 237); stroke-opacity: 1; stroke-miterlimit: 0; stroke-width: 1px; stroke-dashoffset: 0px;"/>
      </g>
      <g transform="matrix(1, 0, 0, 1, 0.0599, 330.811493)">
        <path d="M 0 0 L 512 0" style="fill: none; stroke: rgb(216, 217, 218); stroke-opacity: 1; stroke-miterlimit: 0; stroke-width: 1px; stroke-dashoffset: 0px;"/>
      </g>
      <g transform="matrix(1, 0, 0, 1, 0.0599, 341.47821)">
        <path d="M 0 0 L 512 0" style="fill: none; stroke: rgb(236, 236, 237); stroke-opacity: 1; stroke-miterlimit: 0; stroke-width: 1px; stroke-dashoffset: 0px;"/>
      </g>
      <g transform="matrix(1, 0, 0, 1, 0.0599, 352.144836)">
        <path d="M 0 0 L 512 0" style="fill: none; stroke: rgb(236, 236, 237); stroke-opacity: 1; stroke-miterlimit: 0; stroke-width: 1px; stroke-dashoffset: 0px;"/>
      </g>
      <g transform="matrix(1, 0, 0, 1, 0.0599, 362.811493)">
        <path d="M 0 0 L 512 0" style="fill: none; stroke: rgb(236, 236, 237); stroke-opacity: 1; stroke-miterlimit: 0; stroke-width: 1px; stroke-dashoffset: 0px;"/>
      </g>
      <g transform="matrix(1, 0, 0, 1, 0.0599, 373.47821)">
        <path d="M 0 0 L 512 0" style="fill: none; stroke: rgb(236, 236, 237); stroke-opacity: 1; stroke-miterlimit: 0; stroke-width: 1px; stroke-dashoffset: 0px;"/>
      </g>
      <g transform="matrix(1, 0, 0, 1, 0.0599, 384.144836)">
        <path d="M 0 0 L 512 0" style="fill: none; stroke: rgb(236, 236, 237); stroke-opacity: 1; stroke-miterlimit: 0; stroke-width: 1px; stroke-dashoffset: 0px;"/>
      </g>
      <g transform="matrix(1, 0, 0, 1, 0.0599, 394.811493)">
        <path d="M 0 0 L 512 0" style="fill: none; stroke: rgb(236, 236, 237); stroke-opacity: 1; stroke-miterlimit: 0; stroke-width: 1px; stroke-dashoffset: 0px;"/>
      </g>
      <g transform="matrix(1, 0, 0, 1, 0.0599, 405.47821)">
        <path d="M 0 0 L 512 0" style="fill: none; stroke: rgb(236, 236, 237); stroke-opacity: 1; stroke-miterlimit: 0; stroke-width: 1px; stroke-dashoffset: 0px;"/>
      </g>
      <g transform="matrix(1, 0, 0, 1, 0.0599, 416.144836)">
        <path d="M 0 0 L 512 0" style="fill: none; stroke: rgb(236, 236, 237); stroke-opacity: 1; stroke-miterlimit: 0; stroke-width: 1px; stroke-dashoffset: 0px;"/>
      </g>
      <g transform="matrix(1, 0, 0, 1, 0.0599, 426.811493)">
        <path d="M 0 0 L 512 0" style="fill: none; stroke: rgb(236, 236, 237); stroke-opacity: 1; stroke-miterlimit: 0; stroke-width: 1px; stroke-dashoffset: 0px;"/>
      </g>
      <g transform="matrix(1, 0, 0, 1, 0.0599, 437.47821)">
        <path d="M 0 0 L 512 0" style="fill: none; stroke: rgb(236, 236, 237); stroke-opacity: 1; stroke-miterlimit: 0; stroke-width: 1px; stroke-dashoffset: 0px;"/>
      </g>
      <g transform="matrix(1, 0, 0, 1, 0.0599, 448.144836)">
        <path d="M 0 0 L 512 0" style="fill: none; stroke: rgb(236, 236, 237); stroke-opacity: 1; stroke-miterlimit: 0; stroke-width: 1px; stroke-dashoffset: 0px;"/>
      </g>
      <g transform="matrix(1, 0, 0, 1, 0.0599, 458.811493)">
        <path d="M 0 0 L 512 0" style="fill: none; stroke: rgb(236, 236, 237); stroke-opacity: 1; stroke-miterlimit: 0; stroke-width: 1px; stroke-dashoffset: 0px;"/>
      </g>
      <g transform="matrix(1, 0, 0, 1, 0.0599, 469.47821)">
        <path d="M 0 0 L 512 0" style="fill: none; stroke: rgb(236, 236, 237); stroke-opacity: 1; stroke-miterlimit: 0; stroke-width: 1px; stroke-dashoffset: 0px;"/>
      </g>
      <g transform="matrix(1, 0, 0, 1, 0.0599, 480.144836)">
        <path d="M 0 0 L 512 0" style="fill: none; stroke: rgb(236, 236, 237); stroke-opacity: 1; stroke-miterlimit: 0; stroke-width: 1px; stroke-dashoffset: 0px;"/>
      </g>
      <g transform="matrix(1, 0, 0, 1, 0.0599, 490.811493)">
        <path d="M 0 0 L 512 0" style="fill: none; stroke: rgb(236, 236, 237); stroke-opacity: 1; stroke-miterlimit: 0; stroke-width: 1px; stroke-dashoffset: 0px;"/>
      </g>
      <g transform="matrix(1, 0, 0, 1, 0.0599, 501.47821)">
        <path d="M 0 0 L 512 0" style="fill: none; stroke: rgb(236, 236, 237); stroke-opacity: 1; stroke-miterlimit: 0; stroke-width: 1px; stroke-dashoffset: 0px;"/>
      </g>
      <g transform="matrix(1, 0, 0, 1, 501.393188, 512.144775)">
        <path d="M 0 0 L 0 -512" style="fill: none; stroke: rgb(236, 236, 237); stroke-opacity: 1; stroke-miterlimit: 0; stroke-width: 1px; stroke-dashoffset: 0px;"/>
      </g>
      <g transform="matrix(1, 0, 0, 1, 490.726624, 512.144775)">
        <path d="M 0 0 L 0 -512" style="fill: none; stroke: rgb(236, 236, 237); stroke-opacity: 1; stroke-miterlimit: 0; stroke-width: 1px; stroke-dashoffset: 0px;"/>
      </g>
      <g transform="matrix(1, 0, 0, 1, 480.059906, 512.144775)">
        <path d="M 0 0 L 0 -512" style="fill: none; stroke: rgb(236, 236, 237); stroke-opacity: 1; stroke-miterlimit: 0; stroke-width: 1px; stroke-dashoffset: 0px;"/>
      </g>
      <g transform="matrix(1, 0, 0, 1, 469.393188, 512.144775)">
        <path d="M 0 0 L 0 -512" style="fill: none; stroke: rgb(236, 236, 237); stroke-opacity: 1; stroke-miterlimit: 0; stroke-width: 1px; stroke-dashoffset: 0px;"/>
      </g>
      <g transform="matrix(1, 0, 0, 1, 458.726624, 512.144775)">
        <path d="M 0 0 L 0 -512" style="fill: none; stroke: rgb(236, 236, 237); stroke-opacity: 1; stroke-miterlimit: 0; stroke-width: 1px; stroke-dashoffset: 0px;"/>
      </g>
      <g transform="matrix(1, 0, 0, 1, 448.059906, 512.144775)">
        <path d="M 0 0 L 0 -512" style="fill: none; stroke: rgb(236, 236, 237); stroke-opacity: 1; stroke-miterlimit: 0; stroke-width: 1px; stroke-dashoffset: 0px;"/>
      </g>
      <g transform="matrix(1, 0, 0, 1, 437.393188, 512.144775)">
        <path d="M 0 0 L 0 -512" style="fill: none; stroke: rgb(236, 236, 237); stroke-opacity: 1; stroke-miterlimit: 0; stroke-width: 1px; stroke-dashoffset: 0px;"/>
      </g>
      <g transform="matrix(1, 0, 0, 1, 426.726624, 512.144775)">
        <path d="M 0 0 L 0 -512" style="fill: none; stroke: rgb(236, 236, 237); stroke-opacity: 1; stroke-miterlimit: 0; stroke-width: 1px; stroke-dashoffset: 0px;"/>
      </g>
      <g transform="matrix(1, 0, 0, 1, 416.059906, 512.144775)">
        <path d="M 0 0 L 0 -512" style="fill: none; stroke: rgb(236, 236, 237); stroke-opacity: 1; stroke-miterlimit: 0; stroke-width: 1px; stroke-dashoffset: 0px;"/>
      </g>
      <g transform="matrix(1, 0, 0, 1, 405.393188, 512.144775)">
        <path d="M 0 0 L 0 -512" style="fill: none; stroke: rgb(236, 236, 237); stroke-opacity: 1; stroke-miterlimit: 0; stroke-width: 1px; stroke-dashoffset: 0px;"/>
      </g>
      <g transform="matrix(1, 0, 0, 1, 394.726624, 512.144775)">
        <path d="M 0 0 L 0 -512" style="fill: none; stroke: rgb(236, 236, 237); stroke-opacity: 1; stroke-miterlimit: 0; stroke-width: 1px; stroke-dashoffset: 0px;"/>
      </g>
      <g transform="matrix(1, 0, 0, 1, 384.059906, 512.144775)">
        <path d="M 0 0 L 0 -512" style="fill: none; stroke: rgb(236, 236, 237); stroke-opacity: 1; stroke-miterlimit: 0; stroke-width: 1px; stroke-dashoffset: 0px;"/>
      </g>
      <g transform="matrix(1, 0, 0, 1, 373.393188, 512.144775)">
        <path d="M 0 0 L 0 -512" style="fill: none; stroke: rgb(236, 236, 237); stroke-opacity: 1; stroke-miterlimit: 0; stroke-width: 1px; stroke-dashoffset: 0px;"/>
      </g>
      <g transform="matrix(1, 0, 0, 1, 362.726624, 512.144775)">
        <path d="M 0 0 L 0 -512" style="fill: none; stroke: rgb(236, 236, 237); stroke-opacity: 1; stroke-miterlimit: 0; stroke-width: 1px; stroke-dashoffset: 0px;"/>
      </g>
      <g transform="matrix(1, 0, 0, 1, 352.059906, 512.144775)">
        <path d="M 0 0 L 0 -512" style="fill: none; stroke: rgb(236, 236, 237); stroke-opacity: 1; stroke-miterlimit: 0; stroke-width: 1px; stroke-dashoffset: 0px;"/>
      </g>
      <g transform="matrix(1, 0, 0, 1, 341.393188, 512.144775)">
        <path d="M 0 0 L 0 -512" style="fill: none; stroke: rgb(236, 236, 237); stroke-opacity: 1; stroke-miterlimit: 0; stroke-width: 1px; stroke-dashoffset: 0px;"/>
      </g>
      <g transform="matrix(1, 0, 0, 1, 330.726624, 512.144775)">
        <path d="M 0 0 L 0 -512" style="fill: none; stroke: rgb(216, 217, 218); stroke-opacity: 1; stroke-miterlimit: 0; stroke-width: 1px; stroke-dashoffset: 0px;"/>
      </g>
      <g transform="matrix(1, 0, 0, 1, 320.059906, 512.144775)">
        <path d="M 0 0 L 0 -512" style="fill: none; stroke: rgb(236, 236, 237); stroke-opacity: 1; stroke-miterlimit: 0; stroke-width: 1px; stroke-dashoffset: 0px;"/>
      </g>
      <g transform="matrix(1, 0, 0, 1, 309.393188, 512.144775)">
        <path d="M 0 0 L 0 -512" style="fill: none; stroke: rgb(236, 236, 237); stroke-opacity: 1; stroke-miterlimit: 0; stroke-width: 1px; stroke-dashoffset: 0px;"/>
      </g>
      <g transform="matrix(1, 0, 0, 1, 298.726624, 512.144775)">
        <path d="M 0 0 L 0 -512" style="fill: none; stroke: rgb(236, 236, 237); stroke-opacity: 1; stroke-miterlimit: 0; stroke-width: 1px; stroke-dashoffset: 0px;"/>
      </g>
      <g transform="matrix(1, 0, 0, 1, 288.059906, 512.144775)">
        <path d="M 0 0 L 0 -512" style="fill: none; stroke: rgb(236, 236, 237); stroke-opacity: 1; stroke-miterlimit: 0; stroke-width: 1px; stroke-dashoffset: 0px;"/>
      </g>
      <g transform="matrix(1, 0, 0, 1, 277.393188, 512.144775)">
        <path d="M 0 0 L 0 -512" style="fill: none; stroke: rgb(236, 236, 237); stroke-opacity: 1; stroke-miterlimit: 0; stroke-width: 1px; stroke-dashoffset: 0px;"/>
      </g>
      <g transform="matrix(1, 0, 0, 1, 266.726624, 512.144775)">
        <path d="M 0 0 L 0 -512" style="fill: none; stroke: rgb(236, 236, 237); stroke-opacity: 1; stroke-miterlimit: 0; stroke-width: 1px; stroke-dashoffset: 0px;"/>
      </g>
      <g transform="matrix(1, 0, 0, 1, 245.393295, 512.144775)">
        <path d="M 0 0 L 0 -512" style="fill: none; stroke: rgb(236, 236, 237); stroke-opacity: 1; stroke-miterlimit: 0; stroke-width: 1px; stroke-dashoffset: 0px;"/>
      </g>
      <g transform="matrix(1, 0, 0, 1, 234.726608, 512.144775)">
        <path d="M 0 0 L 0 -512" style="fill: none; stroke: rgb(236, 236, 237); stroke-opacity: 1; stroke-miterlimit: 0; stroke-width: 1px; stroke-dashoffset: 0px;"/>
      </g>
      <g transform="matrix(1, 0, 0, 1, 224.059906, 512.144775)">
        <path d="M 0 0 L 0 -512" style="fill: none; stroke: rgb(236, 236, 237); stroke-opacity: 1; stroke-miterlimit: 0; stroke-width: 1px; stroke-dashoffset: 0px;"/>
      </g>
      <g transform="matrix(1, 0, 0, 1, 213.393295, 512.144775)">
        <path d="M 0 0 L 0 -512" style="fill: none; stroke: rgb(236, 236, 237); stroke-opacity: 1; stroke-miterlimit: 0; stroke-width: 1px; stroke-dashoffset: 0px;"/>
      </g>
      <g transform="matrix(1, 0, 0, 1, 202.726608, 512.144775)">
        <path d="M 0 0 L 0 -512" style="fill: none; stroke: rgb(236, 236, 237); stroke-opacity: 1; stroke-miterlimit: 0; stroke-width: 1px; stroke-dashoffset: 0px;"/>
      </g>
      <g transform="matrix(1, 0, 0, 1, 192.059906, 512.144775)">
        <path d="M 0 0 L 0 -512" style="fill: none; stroke: rgb(236, 236, 237); stroke-opacity: 1; stroke-miterlimit: 0; stroke-width: 1px; stroke-dashoffset: 0px;"/>
      </g>
      <g transform="matrix(1, 0, 0, 1, 181.393295, 512.144775)">
        <path d="M 0 0 L 0 -512" style="fill: none; stroke: rgb(216, 217, 218); stroke-opacity: 1; stroke-miterlimit: 0; stroke-width: 1px; stroke-dashoffset: 0px;"/>
      </g>
      <g transform="matrix(1, 0, 0, 1, 170.726608, 512.144775)">
        <path d="M 0 0 L 0 -512" style="fill: none; stroke: rgb(236, 236, 237); stroke-opacity: 1; stroke-miterlimit: 0; stroke-width: 1px; stroke-dashoffset: 0px;"/>
      </g>
      <g transform="matrix(1, 0, 0, 1, 160.059906, 512.144775)">
        <path d="M 0 0 L 0 -512" style="fill: none; stroke: rgb(236, 236, 237); stroke-opacity: 1; stroke-miterlimit: 0; stroke-width: 1px; stroke-dashoffset: 0px;"/>
      </g>
      <g transform="matrix(1, 0, 0, 1, 149.393295, 512.144775)">
        <path d="M 0 0 L 0 -512" style="fill: none; stroke: rgb(236, 236, 237); stroke-opacity: 1; stroke-miterlimit: 0; stroke-width: 1px; stroke-dashoffset: 0px;"/>
      </g>
      <g transform="matrix(1, 0, 0, 1, 138.726593, 512.144775)">
        <path d="M 0 0 L 0 -512" style="fill: none; stroke: rgb(236, 236, 237); stroke-opacity: 1; stroke-miterlimit: 0; stroke-width: 1px; stroke-dashoffset: 0px;"/>
      </g>
      <g transform="matrix(1, 0, 0, 1, 128.059906, 512.144775)">
        <path d="M 0 0 L 0 -512" style="fill: none; stroke: rgb(236, 236, 237); stroke-opacity: 1; stroke-miterlimit: 0; stroke-width: 1px; stroke-dashoffset: 0px;"/>
      </g>
      <g transform="matrix(1, 0, 0, 1, 117.393303, 512.144775)">
        <path d="M 0 0 L 0 -512" style="fill: none; stroke: rgb(236, 236, 237); stroke-opacity: 1; stroke-miterlimit: 0; stroke-width: 1px; stroke-dashoffset: 0px;"/>
      </g>
      <g transform="matrix(1, 0, 0, 1, 106.726608, 512.144775)">
        <path d="M 0 0 L 0 -512" style="fill: none; stroke: rgb(236, 236, 237); stroke-opacity: 1; stroke-miterlimit: 0; stroke-width: 1px; stroke-dashoffset: 0px;"/>
      </g>
      <g transform="matrix(1, 0, 0, 1, 96.059898, 512.144775)">
        <path d="M 0 0 L 0 -512" style="fill: none; stroke: rgb(236, 236, 237); stroke-opacity: 1; stroke-miterlimit: 0; stroke-width: 1px; stroke-dashoffset: 0px;"/>
      </g>
      <g transform="matrix(1, 0, 0, 1, 85.393303, 512.144775)">
        <path d="M 0 0 L 0 -512" style="fill: none; stroke: rgb(236, 236, 237); stroke-opacity: 1; stroke-miterlimit: 0; stroke-width: 1px; stroke-dashoffset: 0px;"/>
      </g>
      <g transform="matrix(1, 0, 0, 1, 74.726608, 512.144775)">
        <path d="M 0 0 L 0 -512" style="fill: none; stroke: rgb(236, 236, 237); stroke-opacity: 1; stroke-miterlimit: 0; stroke-width: 1px; stroke-dashoffset: 0px;"/>
      </g>
      <g transform="matrix(1, 0, 0, 1, 64.059898, 512.144775)">
        <path d="M 0 0 L 0 -512" style="fill: none; stroke: rgb(236, 236, 237); stroke-opacity: 1; stroke-miterlimit: 0; stroke-width: 1px; stroke-dashoffset: 0px;"/>
      </g>
      <g transform="matrix(1, 0, 0, 1, 53.393303, 512.144775)">
        <path d="M 0 0 L 0 -512" style="fill: none; stroke: rgb(236, 236, 237); stroke-opacity: 1; stroke-miterlimit: 0; stroke-width: 1px; stroke-dashoffset: 0px;"/>
      </g>
      <g transform="matrix(1, 0, 0, 1, 42.726604, 512.144775)">
        <path d="M 0 0 L 0 -512" style="fill: none; stroke: rgb(236, 236, 237); stroke-opacity: 1; stroke-miterlimit: 0; stroke-width: 1px; stroke-dashoffset: 0px;"/>
      </g>
      <g transform="matrix(1, 0, 0, 1, 32.059898, 512.144775)">
        <path d="M 0 0 L 0 -512" style="fill: none; stroke: rgb(236, 236, 237); stroke-opacity: 1; stroke-miterlimit: 0; stroke-width: 1px; stroke-dashoffset: 0px;"/>
      </g>
      <g transform="matrix(1, 0, 0, 1, 21.393301, 512.144775)">
        <path d="M 0 0 L 0 -512" style="fill: none; stroke: rgb(236, 236, 237); stroke-opacity: 1; stroke-miterlimit: 0; stroke-width: 1px; stroke-dashoffset: 0px;"/>
      </g>
      <g transform="matrix(1, 0, 0, 1, 10.7266, 512.144775)" style="">
        <path d="M 0 0 L 0 -512" style="fill: none; stroke: rgb(236, 236, 237); stroke-opacity: 1; stroke-miterlimit: 0; stroke-width: 1px; stroke-dashoffset: 0px;"/>
      </g>
    </g>
    <g style="" transform="matrix(1.532094, 0, 0, -1.532094, -0.294687, 784.644836)">
      <title>severalline</title>
      <g transform="matrix(1, 0, 0, 1, 0.0599, 256.144836)" style="">
        <path d="M 0 0 L 512 0" style="fill: none; stroke: rgb(216, 217, 218); stroke-opacity: 1; stroke-miterlimit: 0; stroke-width: 1px; stroke-dashoffset: 0px;"/>
      </g>
      <g transform="matrix(1, 0, 0, 1, 256.059906, 512.144775)" style="">
        <path d="M 0 0 L 0 -512" style="fill: none; stroke: rgb(216, 217, 218); stroke-opacity: 1; stroke-miterlimit: 0; stroke-width: 1px; stroke-dashoffset: 0px;"/>
      </g>
      <g transform="matrix(1, 0, 0, 1, 512.059937, 512.144775)" style="">
        <path d="M 0 0 L -512 -512" style="fill: none; stroke: rgb(216, 217, 218); stroke-opacity: 1; stroke-miterlimit: 0; stroke-width: 1px; stroke-dashoffset: 0px;"/>
      </g>
      <g transform="matrix(1, 0, 0, 1, 0.0599, 512.144775)">
        <path d="M 0 0 L 512 -512" style="fill: none; stroke: rgb(216, 217, 218); stroke-opacity: 1; stroke-miterlimit: 0; stroke-width: 1px; stroke-dashoffset: 0px;"/>
      </g>
      <g transform="matrix(1, 0, 0, 1, 362.726624, 256.144836)" style="">
        <path d="M 0 0 C 0 -58.91 -47.756 -106.667 -106.667 -106.667 C -165.577 -106.667 -213.333 -58.91 -213.333 0 C -213.333 58.91 -165.577 106.667 -106.667 106.667 C -47.756 106.667 0 58.91 0 0 Z" style="fill: none; stroke: rgb(216, 217, 218); stroke-opacity: 1; stroke-miterlimit: 0; stroke-width: 1px; stroke-dashoffset: 0px;"/>
      </g>
      <g transform="matrix(1, 0, 0, 1, 394.413788, 21.478201)">
        <path d="M 0 0 L -276.933 0 C -294.654 0 -309.021 14.366 -309.021 32.088 L -309.021 437.246 C -309.021 454.967 -294.654 469.333 -276.933 469.333 L 0 469.333 C 17.722 469.333 32.088 454.967 32.088 437.246 L 32.088 32.088 C 32.088 14.366 17.722 0 0 0 Z" style="fill: none; stroke: rgb(196, 197, 199); stroke-opacity: 1; stroke-miterlimit: 0; stroke-width: 1px; stroke-dashoffset: 0px;"/>
      </g>
      <g transform="matrix(1, 0, 0, 1, 21.280701, 117.678398)">
        <path d="M 0 0 L 0 276.933 C 0 294.654 14.366 309.021 32.088 309.021 L 437.246 309.021 C 454.967 309.021 469.333 294.654 469.333 276.933 L 469.333 0 C 469.333 -17.722 454.967 -32.088 437.246 -32.088 L 32.088 -32.088 C 14.366 -32.088 0 -17.722 0 0 Z" style="fill: none; stroke: rgb(196, 197, 199); stroke-opacity: 1; stroke-miterlimit: 0; stroke-width: 1px; stroke-dashoffset: 0px;"/>
      </g>
      <g transform="matrix(1, 0, 0, 1, 426.180786, 53.478203)" style="">
        <path d="M 0 0 L -340.718 0 C -358.561 0 -373.026 14.465 -373.026 32.307 L -373.026 373.026 C -373.026 390.869 -358.561 405.333 -340.718 405.333 L 0 405.333 C 17.843 405.333 32.307 390.869 32.307 373.026 L 32.307 32.307 C 32.307 14.465 17.843 0 0 0 Z" style="fill: none; stroke: rgb(196, 197, 199); stroke-opacity: 1; stroke-miterlimit: 0; stroke-width: 1px; stroke-dashoffset: 0px;"/>
      </g>
    </g>
    <rect width="785" height="785" style="fill: none; stroke: rgb(0, 0, 0);">
      <title>viewBoxLine</title>
    </rect>
    <rect width="622" height="622" style="fill: none; stroke: rgb(0, 0, 0); stroke-width: 1" x="81" y="81">
      <title>squareLine</title>
    </rect>
  </g>
</svg>